Coordinates
version=1
nRows=14
nColumns=24
inDegrees=yes

Units are S.I. units (second, meters, Newtons, ...)
Angles are in degrees.

endheader
time	pelvis_tilt	pelvis_list	pelvis_rotation	pelvis_tx	pelvis_ty	pelvis_tz	hip_flexion_r	hip_adduction_r	hip_rotation_r	knee_angle_r	ankle_angle_r	subtalar_angle_r	mtp_angle_r	hip_flexion_l	hip_adduction_l	hip_rotation_l	knee_angle_l	ankle_angle_l	subtalar_angle_l	mtp_angle_l	lumbar_extension	lumbar_bending	lumbar_rotation
     23.95833333	   -191.33648188	   -139.79058132	   -273.49438223	      0.20636184	      1.00435755	      0.37908320	     25.75436848	    -15.98165499	    145.27546630	     79.71945114	   -177.62354654	    -50.78288178	      0.00000000	     55.62844725	     -9.87612543	     -6.01231590	    -26.50485140	    -18.69193000	     23.40291887	      0.00000000	    138.45815897	    171.09153733	   -184.79737076
     23.96666667	   -191.33575326	   -139.78863575	   -273.49828756	      0.20635910	      1.00435689	      0.37905749	     25.75549601	    -15.98355348	    145.27463524	     79.71791142	   -177.62266573	    -50.78380999	      0.00000000	     55.62934752	     -9.87679722	     -6.01077960	    -26.50506507	    -18.69255405	     23.40392978	      0.00000000	    138.45617204	    171.09263503	   -184.80022805
     23.97500000	   -191.33534449	   -139.78231521	   -273.50443897	      0.20633746	      1.00438018	      0.37903907	     25.75182794	    -15.97668094	    145.28507459	     79.71426534	   -177.61687869	    -50.78926182	      0.00000000	     55.62474866	     -9.88254326	     -6.00557524	    -26.50453385	    -18.69738349	     23.40712165	      0.00000000	    138.45019352	    171.09923600	   -184.80164087
     23.98333333	   -191.33430478	   -139.77987300	   -273.50434295	      0.20630867	      1.00438519	      0.37902101	     25.75123539	    -15.97456667	    145.28447689	     79.71498386	   -177.61778816	    -50.78890165	      0.00000000	     55.62527467	     -9.88616223	     -6.00602993	    -26.50374023	    -18.69749716	     23.40699005	      0.00000000	    138.44948552	    171.10362671	   -184.80383895
     23.99166667	   -191.33468555	   -139.77838990	   -273.50658773	      0.20628089	      1.00437953	      0.37900051	     25.75285991	    -15.97389866	    145.28176408	     79.71784453	   -177.61917030	    -50.78788464	      0.00000000	     55.62535477	     -9.89167749	     -6.00506185	    -26.50230263	    -18.69842011	     23.40717734	      0.00000000	    138.44883827	    171.10742050	   -184.80827090
     24.00000000	   -191.33543118	   -139.77814714	   -273.50637182	      0.20631640	      1.00437739	      0.37900993	     25.75088632	    -15.97705836	    145.28474395	     79.71715875	   -177.62001729	    -50.78662240	      0.00000000	     55.62444152	     -9.89414438	     -6.00409103	    -26.50070504	    -18.69941320	     23.40715131	      0.00000000	    138.45187811	    171.10305440	   -184.80862107
     24.00833333	   -191.33790850	   -139.77580370	   -273.51151425	      0.20627364	      1.00436827	      0.37900104	     25.75203087	    -15.96523818	    145.29158427	     79.71456791	   -177.61938089	    -50.78223071	      0.00000000	     55.61838909	     -9.90515046	     -5.99887839	    -26.48757114	    -18.70996597	     23.40828013	      0.00000000	    138.45080340	    171.10748366	   -184.81203042
     24.01666667	   -191.33679027	   -139.77384705	   -273.51581120	      0.20622830	      1.00437045	      0.37898209	     25.75175285	    -15.96060314	    145.29025748	     79.71243968	   -177.61795760	    -50.78198386	      0.00000000	     55.62031515	     -9.91381361	     -5.99905329	    -26.48755535	    -18.71078479	     23.40690761	      0.00000000	    138.45376335	    171.11529474	   -184.81800689
     24.02500000	   -191.33919215	   -139.77444333	   -273.49707558	      0.20634180	      1.00437494	      0.37898897	     25.74163640	    -15.97615461	    145.27135655	     79.70979902	   -177.62860269	    -50.77116279	      0.00000000	     55.62834440	     -9.89102726	     -5.98344677	    -26.48655021	    -18.71603355	     23.39328050	      0.00000000	    138.45813218	    171.08707687	   -184.83477376
     24.03333333	   -191.33870111	   -139.77339240	   -273.49912164	      0.20634440	      1.00436249	      0.37898537	     25.74285056	    -15.97895931	    145.26998390	     79.71193735	   -177.62863048	    -50.77142808	      0.00000000	     55.63166006	     -9.89317735	     -5.98030910	    -26.48382309	    -18.71705254	     23.39413061	      0.00000000	    138.45323084	    171.08715186	   -184.83744164
     24.04166667	   -191.33984070	   -139.77242677	   -273.50339994	      0.20631591	      1.00435563	      0.37898432	     25.74416173	    -15.97312246	    145.27018038	     79.71387396	   -177.62678743	    -50.77225444	      0.00000000	     55.62984390	     -9.89761482	     -5.95919306	    -26.46479232	    -18.72659524	     23.40611487	      0.00000000	    138.45481630	    171.09319452	   -184.83525746
     24.05000000	   -191.33838390	   -139.77012138	   -273.50388835	      0.20631509	      1.00435321	      0.37896736	     25.74437275	    -15.97239843	    145.26982696	     79.71218452	   -177.62683511	    -50.77220705	      0.00000000	     55.63383457	     -9.89857205	     -5.95892120	    -26.45992993	    -18.72634336	     23.40672519	      0.00000000	    138.45112193	    171.09241232	   -184.83628000
     24.05833333	   -191.33540406	   -139.76492799	   -273.50668859	      0.20628973	      1.00436440	      0.37895061	     25.74086025	    -15.96805017	    145.27569079	     79.70769209	   -177.62046740	    -50.77573759	      0.00000000	     55.62633648	     -9.90021563	     -5.95254497	    -26.44323468	    -18.72666311	     23.42460366	      0.00000000	    138.44243594	    171.09849543	   -184.83636879
     24.06666667	   -191.33460704	   -139.76555538	   -273.50392556	      0.20630191	      1.00436705	      0.37896842	     25.73864567	    -15.96927093	    145.27292068	     79.70824510	   -177.62182038	    -50.76734767	      0.00000000	     55.63009140	     -9.89874877	     -5.95059012	    -26.43629689	    -18.71838972	     23.45162579	      0.00000000	    138.44571367	    171.09859055	   -184.82949176
